<svg xmlns="http://www.w3.org/2000/svg" viewBox="0 0 259.81 161.5"><defs><style>.cls-1,.cls-4{fill:#fff;}.cls-1,.cls-3{stroke:#1d1d1b;stroke-miterlimit:10;}.cls-2{fill:#a47b55;}.cls-3,.cls-5{fill:#1d1d1b;}.cls-5{font-size:24px;font-family:MyriadPro-Regular, Myriad Pro;}.cls-6{letter-spacing:-0.01em;}.cls-7{letter-spacing:-0.01em;}</style></defs><title>leopard_logo</title><g id="Laag_2" data-name="Laag 2"><g id="Logo"><rect class="cls-1" x="0.5" y="67.48" width="234.1" height="52.45"/><rect class="cls-1" x="5.27" y="119.93" width="229.33" height="10.4"/><rect class="cls-1" x="234.6" y="71.38" width="24.71" height="52.45"/><rect class="cls-1" x="5.27" y="54.04" width="224.99" height="13.44"/><rect class="cls-1" x="76.8" y="54.04" width="69.36" height="3.9"/><rect class="cls-1" x="12.64" y="41.9" width="214.59" height="12.14"/><rect class="cls-1" x="55.56" y="15.38" width="120.95" height="26.52"/><rect class="cls-1" x="64.66" y="0.5" width="105.34" height="41.4"/></g><g id="Paper_out" data-name="Paper out"><polygon class="cls-1" points="193.44 161 44.17 161 55.68 99.87 176.63 99.87 193.44 161"/><path class="cls-2" d="M124.69,142.5c1,2.24-2.34,4-7.4,3.93s-9.94-1.94-10.91-4.18,2.34-4,7.4-3.93S123.72,140.26,124.69,142.5Z"/><path class="cls-3" d="M107.1,142.15c.62,0,1,.69,2.63,1.61,1.17.67,1.79.77,2.07,1.26a.79.79,0,0,1-.08.9,1.93,1.93,0,0,1-2.26.36c-.56-.32-.35-.78-1.07-1.31s-1-.3-1.48-.73a1.48,1.48,0,0,1-.55-1.36C106.39,142.78,106.51,142.16,107.1,142.15Z"/><path class="cls-3" d="M112.61,144.65a2.1,2.1,0,0,1,1.49,0c.33.17.28.35.87,1a2.6,2.6,0,0,0,1,.79,1.68,1.68,0,0,0,1.33-.2c.53-.25.46-.4,1-.7a2.24,2.24,0,0,1,1.68-.42,2.76,2.76,0,0,1,1.54.84,1,1,0,0,1-.32,1.64c-.47.19-.82-.08-1.52.1s-.42.36-1.06.65a6,6,0,0,1-2,.4h0s-1.09-.39-2-.85a7,7,0,0,1-1.71-1c-.54-.47-1.22-1.32-1-1.8C111.91,144.83,112.15,144.77,112.61,144.65Z"/><path class="cls-3" d="M122.49,142.75a3,3,0,0,1,1.79.34,2.58,2.58,0,0,1,1.13.95c.16.34-.08.39-.14,1s.18.88,0,1.07-1.13.1-1.59,0a3.19,3.19,0,0,1-1.61-.72c-.33-.35-.3-.68-.26-1.22C121.84,143.45,121.89,142.91,122.49,142.75Z"/><path class="cls-3" d="M120.92,140.73c-.51-.38-1.41-1-1.3-1.34s1.49,0,1.82,0A4.39,4.39,0,0,1,123,140a2.38,2.38,0,0,1,.9.91c.18.41.13.91-.27,1C122.92,142.19,121.54,141.18,120.92,140.73Z"/><path class="cls-3" d="M112.59,137c.13.54,1.12,1,1.19,1.06.79.38,1,.12,2.45.51a7,7,0,0,0,1.31.33c.35,0,1,.1,1.2-.19s-.18-1-.75-1.46c-.31-.23-.5-.26-2.32-.76a7,7,0,0,0-1.53-.37C113.34,136.1,112.45,136.43,112.59,137Z"/><path class="cls-3" d="M110.33,139.08c-.1.88,0,1,.06,1.12a2.93,2.93,0,0,0,1.67.59,3.47,3.47,0,0,0,1.26-.08c.55-.12.9-.2,1-.46.11-.47-.83-1.2-1.33-1.52-.66-.42-1.84-.95-2.35-.7C110.45,138.12,110.41,138.44,110.33,139.08Z"/><path class="cls-3" d="M106.6,137.7a2.87,2.87,0,0,1,2.07,1,1,1,0,0,1-.48,1.48,5.52,5.52,0,0,1-1,.29h0s.4.66.21.81-1.36-.28-2.1-1c-.13-.12-.88-.8-.78-1.4,0-.27.32-.43.86-.74A2.32,2.32,0,0,1,106.6,137.7Z"/><ellipse class="cls-2" cx="128.19" cy="112.21" rx="13.64" ry="7.41" transform="translate(-3.51 220.28) rotate(-80.57)"/><path class="cls-3" d="M130.05,99.82c-.18.92,1.06,1.26,2.39,3.34,1,1.5,1,2.38,1.86,2.63a2.22,2.22,0,0,0,1.75-.42c1.23-.79,1.88-2.59,1.31-3.46-.47-.72-1.4-.25-2.23-1.13-.68-.73-.32-1.34-1-1.93a2.66,2.66,0,0,0-2.47-.35C131.45,98.57,130.22,99,130.05,99.82Z"/><path class="cls-3" d="M133.35,107.11c-.39.78-.81,1.62-.48,2.21.23.43.6.3,1.64.95.72.45,1.11.7,1.25,1.15.21.68-.3,1.4-.75,2-.62.87-.89.81-1.6,1.65a3.88,3.88,0,0,0-1.26,2.62,2.42,2.42,0,0,0,1.2,2,2.72,2.72,0,0,0,3.23-1c.5-.75.07-1.19.61-2.28.45-.91.81-.74,1.53-1.78a9.42,9.42,0,0,0,1.31-3.14h0a21.44,21.44,0,0,0-1.08-2.71,6,6,0,0,0-1.46-2.18c-.76-.64-2.2-1.35-3.19-.79C133.89,106,133.71,106.39,133.35,107.11Z"/><path class="cls-3" d="M127,122.33a2.94,2.94,0,0,0,.17,2.53,2.47,2.47,0,0,0,1.51,1.34c.61.12.77-.25,2-.55s1.63,0,2.07-.42c.64-.57.5-1.7.42-2.34a2.76,2.76,0,0,0-.94-2.13c-.58-.37-1.23-.21-2.27,0C128.54,121.14,127.51,121.39,127,122.33Z"/><path class="cls-3" d="M123.56,120.7c-.58-.63-1.6-1.73-2.23-1.46s-.47,2.21-.41,2.67a3.8,3.8,0,0,0,.75,2.07,2.5,2.5,0,0,0,1.51,1,2,2,0,0,0,2.07-.75C125.84,123.16,124.28,121.47,123.56,120.7Z"/><path class="cls-3" d="M118.65,109.68c1,0,1.67,1.31,1.71,1.4.52,1-.06,1.47.31,3.44a6.45,6.45,0,0,1,.29,1.81c0,.51-.08,1.42-.69,1.83a2.27,2.27,0,0,1-2.61-.61c-.35-.38-.36-.65-.83-3.17a6.68,6.68,0,0,1-.29-2.14C116.73,111.09,117.6,109.66,118.65,109.68Z"/><path class="cls-3" d="M123.26,105.64c1.73-.45,2-.4,2.14-.29.74.43.7,1.74.69,2.26a4.71,4.71,0,0,1-.49,1.89c-.38.85-.63,1.4-1.14,1.58-.93.32-2.08-.82-2.55-1.45-.63-.83-1.33-2.39-.7-3.23C121.38,106.14,122,106,123.26,105.64Z"/><path class="cls-3" d="M121.62,100.61a2.56,2.56,0,0,0,1.41,2.7c1.18.44,2.45-.5,3-1.22a9.86,9.86,0,0,0,.82-1.57h0s1.17.37,1.49,0-.18-1.91-1.28-2.77a3,3,0,0,0-2.48-.67c-.53.16-.9.61-1.66,1.52S121.71,100.06,121.62,100.61Z"/><ellipse class="cls-2" cx="78.32" cy="141.06" rx="7.41" ry="13.64" transform="translate(-69.01 75.29) rotate(-36.9)"/><path class="cls-3" d="M71,130.93c.58.73-.35,1.61-.58,4.06-.16,1.77.21,2.58-.44,3.19a2.22,2.22,0,0,1-1.74.44c-1.46-.14-2.86-1.43-2.76-2.47.09-.85,1.12-.86,1.45-2,.27-1-.33-1.33,0-2.18a2.66,2.66,0,0,1,2-1.45C69.13,130.46,70.4,130.24,71,130.93Z"/><path class="cls-3" d="M71.39,138.92c.71.51,1.46,1.06,1.45,1.74,0,.48-.4.54-1,1.6-.43.73-.67,1.13-.58,1.6.13.7.91,1.1,1.6,1.45A21.61,21.61,0,0,0,75,146a3.88,3.88,0,0,1,2.32,1.74,2.42,2.42,0,0,1-.15,2.32,2.72,2.72,0,0,1-3.34.58c-.79-.44-.61-1-1.6-1.74-.82-.6-1.06-.28-2.18-.87a9.42,9.42,0,0,1-2.61-2.18h0a21.44,21.44,0,0,1-.29-2.9,6,6,0,0,1,.29-2.61c.38-.92,1.33-2.21,2.47-2.18C70.41,138.21,70.74,138.44,71.39,138.92Z"/><path class="cls-3" d="M84,149.51a2.94,2.94,0,0,1,1,2.32,2.47,2.47,0,0,1-.73,1.89c-.49.39-.8.13-2,.44s-1.46.73-2,.58c-.83-.21-1.23-1.28-1.45-1.89a2.76,2.76,0,0,1-.15-2.32c.35-.59,1-.76,2-1C82.12,149.15,83.16,148.89,84,149.51Z"/><path class="cls-3" d="M86.34,146.46c.23-.83.62-2.28,1.31-2.32s1.44,1.74,1.6,2.18a3.8,3.8,0,0,1,.29,2.18,2.5,2.5,0,0,1-.87,1.6,2,2,0,0,1-2.18.29C85.46,149.69,86.06,147.47,86.34,146.46Z"/><path class="cls-3" d="M85.61,134.42c-.88.47-.87,1.93-.87,2,0,1.16.73,1.28,1.31,3.19a6.45,6.45,0,0,0,.58,1.74c.26.44.73,1.22,1.45,1.31s1.77-.82,2-1.74c.14-.5,0-.74-.73-3.19-.48-1.59-.51-1.73-.73-2C88,134.78,86.54,133.92,85.61,134.42Z"/><path class="cls-3" d="M79.66,133c-1.74.4-1.92.55-2,.73-.46.72.18,1.87.44,2.32a4.71,4.71,0,0,0,1.31,1.45c.73.58,1.21,1,1.74.87,1-.15,1.46-1.69,1.6-2.47.18-1,.08-2.73-.87-3.19C81.56,132.54,80.92,132.68,79.66,133Z"/><path class="cls-3" d="M78.79,127.74a2.56,2.56,0,0,1,0,3c-.84.94-2.4.69-3.19.29a9.86,9.86,0,0,1-1.45-1h0s-.87.87-1.31.73-.73-1.78-.15-3A3,3,0,0,1,74.58,126c.54-.1,1.08.12,2.18.58S78.46,127.29,78.79,127.74Z"/><ellipse class="cls-2" cx="155.2" cy="137.71" rx="13.64" ry="7.41" transform="translate(-51.85 151.08) rotate(-45.28)"/><path class="cls-3" d="M146.25,146.47c.64-.69,1.64.12,4.11,0,1.78-.1,2.52-.58,3.22,0a2.22,2.22,0,0,1,.68,1.66c.08,1.46-1,3-2,3.09-.86,0-1-1-2.22-1.14-1-.13-1.27.52-2.15.32a2.66,2.66,0,0,1-1.73-1.8C146,148.34,145.65,147.11,146.25,146.47Z"/><path class="cls-3" d="M154.08,144.87c.41-.78.84-1.6,1.51-1.69.48-.06.59.31,1.73.77.79.32,1.22.49,1.66.34.67-.23,1-1.07,1.2-1.79a21.61,21.61,0,0,0,.4-2.26A3.88,3.88,0,0,1,162,137.7a2.42,2.42,0,0,1,2.32-.19,2.72,2.72,0,0,1,1.06,3.22c-.32.84-.92.76-1.49,1.83-.47.9-.12,1.09-.54,2.28a9.42,9.42,0,0,1-1.77,2.9h0a21.44,21.44,0,0,1-2.83.71,6,6,0,0,1-2.63.09c-1-.25-2.38-1-2.51-2.12A2.66,2.66,0,0,1,154.08,144.87Z"/><path class="cls-3" d="M162.73,130.84a2.94,2.94,0,0,1,2.15-1.34,2.47,2.47,0,0,1,2,.44c.46.43.25.77.73,1.95s.93,1.34.87,1.93c-.09.86-1.09,1.4-1.66,1.71a2.76,2.76,0,0,1-2.28.48c-.64-.26-.89-.87-1.3-1.86C162.64,132.76,162.24,131.78,162.73,130.84Z"/><path class="cls-3" d="M159.37,129c-.85-.1-2.35-.28-2.49-1s1.51-1.67,1.92-1.9a3.8,3.8,0,0,1,2.11-.6,2.5,2.5,0,0,1,1.71.63,2,2,0,0,1,.6,2.11C162.7,129.39,160.41,129.11,159.37,129Z"/><path class="cls-3" d="M147.56,131.46c.59.8,2,.58,2.14.57,1.15-.19,1.16-.91,3-1.76a6.45,6.45,0,0,0,1.64-.83c.39-.32,1.11-.9,1.08-1.63s-1.07-1.63-2-1.76c-.51-.07-.74.09-3.05,1.18-1.5.71-1.64.75-1.9,1C147.57,129.07,146.93,130.61,147.56,131.46Z"/><path class="cls-3" d="M147,137.56c.65,1.66.82,1.82,1,1.9.78.35,1.82-.45,2.23-.77a4.71,4.71,0,0,0,1.25-1.5c.46-.81.76-1.33.61-1.85-.29-.94-1.88-1.2-2.67-1.22-1,0-2.71.32-3,1.33C146.29,135.74,146.52,136.35,147,137.56Z"/><path class="cls-3" d="M141.95,139.18a2.56,2.56,0,0,1,3-.44c1,.7,1,2.27.75,3.12a9.86,9.86,0,0,1-.79,1.58h0s1,.73.91,1.19-1.65,1-3,.59a3,3,0,0,1-2-1.61,4.11,4.11,0,0,1,.26-2.24A4.64,4.64,0,0,1,141.95,139.18Z"/><ellipse class="cls-2" cx="88.19" cy="104.62" rx="7.41" ry="13.64" transform="translate(-48.04 91.82) rotate(-44.5)"/><path class="cls-3" d="M96.83,113.69c-.68-.65.14-1.64,0-4.11-.07-1.78-.55-2.53,0-3.22a2.22,2.22,0,0,1,1.67-.66c1.46-.06,3,1,3.06,2.08,0,.86-1,1-1.17,2.21-.14,1,.51,1.28.29,2.16a2.66,2.66,0,0,1-1.82,1.71C98.7,113.92,97.47,114.3,96.83,113.69Z"/><path class="cls-3" d="M95.34,105.84c-.77-.42-1.59-.86-1.67-1.53-.06-.48.32-.59.8-1.72.33-.78.51-1.21.36-1.66-.22-.68-1.05-1-1.77-1.23a21.61,21.61,0,0,0-2.25-.43,3.88,3.88,0,0,1-2.53-1.42,2.42,2.42,0,0,1-.16-2.32,2.72,2.72,0,0,1,3.23-1c.84.33.74.93,1.81,1.52.89.49,1.08.14,2.27.58a9.42,9.42,0,0,1,2.88,1.81h0a21.44,21.44,0,0,1,.67,2.84,6,6,0,0,1,.06,2.63c-.26,1-1,2.37-2.16,2.48A2.66,2.66,0,0,1,95.34,105.84Z"/><path class="cls-3" d="M81.43,97a2.94,2.94,0,0,1-1.31-2.17,2.47,2.47,0,0,1,.47-2c.44-.45.77-.24,2-.7s1.36-.91,1.94-.84c.85.1,1.39,1.11,1.69,1.68a2.76,2.76,0,0,1,.45,2.28c-.27.63-.88.88-1.88,1.28C83.35,97.11,82.36,97.5,81.43,97Z"/><path class="cls-3" d="M79.53,100.33c-.12.85-.32,2.34-1,2.47s-1.65-1.54-1.87-1.95a3.8,3.8,0,0,1-.58-2.12,2.5,2.5,0,0,1,.65-1.7,2,2,0,0,1,2.12-.58C80,97,79.67,99.29,79.53,100.33Z"/><path class="cls-3" d="M81.84,112.18c.81-.58.61-2,.59-2.13-.17-1.15-.89-1.17-1.72-3a6.45,6.45,0,0,0-.81-1.65c-.31-.4-.88-1.12-1.61-1.1s-1.65,1-1.78,2c-.07.51.08.74,1.14,3.07.69,1.51.73,1.65,1,1.92C79.45,112.13,81,112.79,81.84,112.18Z"/><path class="cls-3" d="M87.93,112.83c1.67-.62,1.83-.79,1.92-1,.36-.78-.43-1.82-.74-2.24a4.71,4.71,0,0,0-1.49-1.27c-.8-.47-1.32-.78-1.84-.63-.95.27-1.23,1.87-1.26,2.66,0,1,.28,2.72,1.29,3.05C86.11,113.5,86.72,113.28,87.93,112.83Z"/><path class="cls-3" d="M89.48,117.89a2.56,2.56,0,0,1-.4-3c.71-1,2.29-1,3.13-.71a9.86,9.86,0,0,1,1.57.82h0s.74-1,1.2-.89,1,1.67.55,3a3,3,0,0,1-1.64,2,4.11,4.11,0,0,1-2.23-.29A4.64,4.64,0,0,1,89.48,117.89Z"/><rect class="cls-4" x="51.65" y="78.3" width="135.01" height="21.28"/><text class="cls-5" transform="translate(8.49 93.32)"><tspan class="cls-6">L</tspan><tspan x="10.99" y="0">eopa</tspan><tspan class="cls-7" x="61.42" y="0">r</tspan><tspan x="69.02" y="0">d</tspan></text></g></g></svg>